<mxfile host="app.diagrams.net" modified="2022-12-13T11:09:47.198Z" agent="5.0 (Windows NT 10.0; Win64; x64) AppleWebKit/537.36 (KHTML, like Gecko) Chrome/102.0.5005.167 YaBrowser/22.7.3.831 Yowser/2.5 Safari/537.36" version="20.6.2" etag="idBidLqfAMMrAc417Cdr" type="github" pages="4">
  <diagram id="C_xQxgZUEL-zpAp4bc_l" name="Страница 1">
    <mxGraphModel dx="1374" dy="829" grid="1" gridSize="10" guides="1" tooltips="1" connect="1" arrows="1" fold="1" page="1" pageScale="1" pageWidth="827" pageHeight="1169" math="0" shadow="0">
      <root>
        <mxCell id="0" />
        <mxCell id="1" parent="0" />
        <mxCell id="tp6-Ydi6VWiKopPlQBAF-1" value="&lt;div style=&quot;text-align: left;&quot;&gt;&lt;font style=&quot;background-color: initial; font-size: 20px;&quot; face=&quot;Times New Roman&quot;&gt;1. Блок-схема&amp;nbsp;&lt;span style=&quot;color: rgb(44, 45, 48); text-align: left; background-color: rgb(255, 255, 255);&quot;&gt;нахождения&amp;nbsp;&lt;/span&gt;&lt;/font&gt;&lt;span style=&quot;background-color: initial; font-size: 20px;&quot;&gt;&lt;font face=&quot;Times New Roman&quot; color=&quot;#2c2d30&quot;&gt;индексов максимального&lt;/font&gt;&lt;/span&gt;&lt;/div&gt;&lt;div style=&quot;&quot;&gt;&lt;span style=&quot;background-color: initial; font-size: 20px;&quot;&gt;&lt;font face=&quot;Times New Roman&quot; color=&quot;#2c2d30&quot;&gt;и минимального элемента массива&lt;/font&gt;&lt;/span&gt;&lt;/div&gt;" style="text;html=1;align=center;verticalAlign=middle;resizable=0;points=[];autosize=1;strokeColor=none;fillColor=none;fontStyle=1" vertex="1" parent="1">
          <mxGeometry x="175" y="10" width="490" height="60" as="geometry" />
        </mxCell>
        <mxCell id="tp6-Ydi6VWiKopPlQBAF-6" style="edgeStyle=orthogonalEdgeStyle;rounded=0;orthogonalLoop=1;jettySize=auto;html=1;exitX=0.5;exitY=1;exitDx=0;exitDy=0;entryX=0.5;entryY=0;entryDx=0;entryDy=0;" edge="1" parent="1" source="tp6-Ydi6VWiKopPlQBAF-2" target="tp6-Ydi6VWiKopPlQBAF-4">
          <mxGeometry relative="1" as="geometry" />
        </mxCell>
        <mxCell id="tp6-Ydi6VWiKopPlQBAF-2" value="START" style="rounded=1;whiteSpace=wrap;html=1;arcSize=50;" vertex="1" parent="1">
          <mxGeometry x="354" y="110" width="120" height="30" as="geometry" />
        </mxCell>
        <mxCell id="tp6-Ydi6VWiKopPlQBAF-3" value="END" style="rounded=1;whiteSpace=wrap;html=1;arcSize=50;" vertex="1" parent="1">
          <mxGeometry x="680" y="685" width="120" height="30" as="geometry" />
        </mxCell>
        <mxCell id="tp6-Ydi6VWiKopPlQBAF-8" style="edgeStyle=orthogonalEdgeStyle;rounded=0;orthogonalLoop=1;jettySize=auto;html=1;exitX=0.5;exitY=1;exitDx=0;exitDy=0;entryX=0.5;entryY=0;entryDx=0;entryDy=0;" edge="1" parent="1" source="tp6-Ydi6VWiKopPlQBAF-4" target="tp6-Ydi6VWiKopPlQBAF-7">
          <mxGeometry relative="1" as="geometry" />
        </mxCell>
        <mxCell id="tp6-Ydi6VWiKopPlQBAF-4" value="array" style="shape=parallelogram;perimeter=parallelogramPerimeter;whiteSpace=wrap;html=1;fixedSize=1;" vertex="1" parent="1">
          <mxGeometry x="354" y="180" width="120" height="30" as="geometry" />
        </mxCell>
        <mxCell id="tp6-Ydi6VWiKopPlQBAF-5" style="edgeStyle=orthogonalEdgeStyle;rounded=0;orthogonalLoop=1;jettySize=auto;html=1;exitX=0.5;exitY=1;exitDx=0;exitDy=0;" edge="1" parent="1" source="tp6-Ydi6VWiKopPlQBAF-4" target="tp6-Ydi6VWiKopPlQBAF-4">
          <mxGeometry relative="1" as="geometry" />
        </mxCell>
        <mxCell id="tp6-Ydi6VWiKopPlQBAF-10" style="edgeStyle=orthogonalEdgeStyle;rounded=0;orthogonalLoop=1;jettySize=auto;html=1;exitX=0.5;exitY=1;exitDx=0;exitDy=0;entryX=0.5;entryY=0;entryDx=0;entryDy=0;" edge="1" parent="1" source="tp6-Ydi6VWiKopPlQBAF-7" target="tp6-Ydi6VWiKopPlQBAF-9">
          <mxGeometry relative="1" as="geometry" />
        </mxCell>
        <mxCell id="tp6-Ydi6VWiKopPlQBAF-7" value="array_size = len(array)&lt;br&gt;max_index = 0&lt;br&gt;min_index = 0&lt;br&gt;index = 0&lt;br&gt;max_el = array[0]&lt;br&gt;min_el = array[0]" style="rounded=0;whiteSpace=wrap;html=1;" vertex="1" parent="1">
          <mxGeometry x="321" y="250" width="186" height="90" as="geometry" />
        </mxCell>
        <mxCell id="tp6-Ydi6VWiKopPlQBAF-16" value="YES" style="edgeStyle=orthogonalEdgeStyle;rounded=0;orthogonalLoop=1;jettySize=auto;html=1;exitX=0;exitY=0.5;exitDx=0;exitDy=0;entryX=1;entryY=0.5;entryDx=0;entryDy=0;" edge="1" parent="1" source="tp6-Ydi6VWiKopPlQBAF-9" target="tp6-Ydi6VWiKopPlQBAF-13">
          <mxGeometry x="-0.0462" y="-10" relative="1" as="geometry">
            <mxPoint as="offset" />
          </mxGeometry>
        </mxCell>
        <mxCell id="tp6-Ydi6VWiKopPlQBAF-24" value="NO" style="edgeStyle=orthogonalEdgeStyle;rounded=0;orthogonalLoop=1;jettySize=auto;html=1;exitX=1;exitY=0.5;exitDx=0;exitDy=0;entryX=0;entryY=0.5;entryDx=0;entryDy=0;" edge="1" parent="1" source="tp6-Ydi6VWiKopPlQBAF-9" target="tp6-Ydi6VWiKopPlQBAF-23">
          <mxGeometry x="-0.0619" y="10" relative="1" as="geometry">
            <mxPoint as="offset" />
          </mxGeometry>
        </mxCell>
        <mxCell id="tp6-Ydi6VWiKopPlQBAF-9" value="index &amp;lt; array_size" style="rhombus;whiteSpace=wrap;html=1;" vertex="1" parent="1">
          <mxGeometry x="351" y="370" width="126" height="80" as="geometry" />
        </mxCell>
        <mxCell id="tp6-Ydi6VWiKopPlQBAF-27" style="edgeStyle=orthogonalEdgeStyle;rounded=0;orthogonalLoop=1;jettySize=auto;html=1;exitX=0.5;exitY=1;exitDx=0;exitDy=0;entryX=0.5;entryY=0;entryDx=0;entryDy=0;" edge="1" parent="1" source="tp6-Ydi6VWiKopPlQBAF-11" target="tp6-Ydi6VWiKopPlQBAF-3">
          <mxGeometry relative="1" as="geometry" />
        </mxCell>
        <mxCell id="tp6-Ydi6VWiKopPlQBAF-11" value="max_index&lt;br&gt;min_index" style="shape=parallelogram;perimeter=parallelogramPerimeter;whiteSpace=wrap;html=1;fixedSize=1;" vertex="1" parent="1">
          <mxGeometry x="680" y="585" width="120" height="60" as="geometry" />
        </mxCell>
        <mxCell id="tp6-Ydi6VWiKopPlQBAF-18" value="YES" style="edgeStyle=orthogonalEdgeStyle;rounded=0;orthogonalLoop=1;jettySize=auto;html=1;exitX=0;exitY=0.5;exitDx=0;exitDy=0;entryX=1;entryY=0.5;entryDx=0;entryDy=0;" edge="1" parent="1" source="tp6-Ydi6VWiKopPlQBAF-13" target="tp6-Ydi6VWiKopPlQBAF-17">
          <mxGeometry x="-0.1429" y="-10" relative="1" as="geometry">
            <mxPoint as="offset" />
          </mxGeometry>
        </mxCell>
        <mxCell id="tp6-Ydi6VWiKopPlQBAF-21" value="NO" style="edgeStyle=orthogonalEdgeStyle;rounded=0;orthogonalLoop=1;jettySize=auto;html=1;exitX=0.5;exitY=1;exitDx=0;exitDy=0;entryX=0.5;entryY=0;entryDx=0;entryDy=0;" edge="1" parent="1" source="tp6-Ydi6VWiKopPlQBAF-13" target="tp6-Ydi6VWiKopPlQBAF-19">
          <mxGeometry x="-0.2" y="17" relative="1" as="geometry">
            <mxPoint as="offset" />
          </mxGeometry>
        </mxCell>
        <mxCell id="tp6-Ydi6VWiKopPlQBAF-13" value="array[index] &amp;gt; max_el" style="rhombus;whiteSpace=wrap;html=1;" vertex="1" parent="1">
          <mxGeometry x="180" y="370" width="140" height="80" as="geometry" />
        </mxCell>
        <mxCell id="tp6-Ydi6VWiKopPlQBAF-20" style="edgeStyle=orthogonalEdgeStyle;rounded=0;orthogonalLoop=1;jettySize=auto;html=1;exitX=0.5;exitY=1;exitDx=0;exitDy=0;entryX=0;entryY=0.5;entryDx=0;entryDy=0;" edge="1" parent="1" source="tp6-Ydi6VWiKopPlQBAF-17" target="tp6-Ydi6VWiKopPlQBAF-19">
          <mxGeometry relative="1" as="geometry" />
        </mxCell>
        <mxCell id="tp6-Ydi6VWiKopPlQBAF-17" value="max_el = array[index]&lt;br&gt;max_index = index" style="rounded=0;whiteSpace=wrap;html=1;" vertex="1" parent="1">
          <mxGeometry x="10" y="380" width="120" height="60" as="geometry" />
        </mxCell>
        <mxCell id="tp6-Ydi6VWiKopPlQBAF-22" style="edgeStyle=orthogonalEdgeStyle;rounded=0;orthogonalLoop=1;jettySize=auto;html=1;exitX=1;exitY=0.5;exitDx=0;exitDy=0;entryX=0.5;entryY=1;entryDx=0;entryDy=0;" edge="1" parent="1" source="tp6-Ydi6VWiKopPlQBAF-19" target="tp6-Ydi6VWiKopPlQBAF-9">
          <mxGeometry relative="1" as="geometry" />
        </mxCell>
        <mxCell id="tp6-Ydi6VWiKopPlQBAF-19" value="index = index + 1" style="rounded=0;whiteSpace=wrap;html=1;" vertex="1" parent="1">
          <mxGeometry x="190" y="500" width="120" height="60" as="geometry" />
        </mxCell>
        <mxCell id="tp6-Ydi6VWiKopPlQBAF-26" style="edgeStyle=orthogonalEdgeStyle;rounded=0;orthogonalLoop=1;jettySize=auto;html=1;exitX=0.5;exitY=1;exitDx=0;exitDy=0;entryX=0.5;entryY=0;entryDx=0;entryDy=0;" edge="1" parent="1" source="tp6-Ydi6VWiKopPlQBAF-23" target="tp6-Ydi6VWiKopPlQBAF-25">
          <mxGeometry relative="1" as="geometry" />
        </mxCell>
        <mxCell id="tp6-Ydi6VWiKopPlQBAF-23" value="index = 0" style="rounded=0;whiteSpace=wrap;html=1;" vertex="1" parent="1">
          <mxGeometry x="590" y="395" width="120" height="30" as="geometry" />
        </mxCell>
        <mxCell id="tp6-Ydi6VWiKopPlQBAF-34" value="YES" style="edgeStyle=orthogonalEdgeStyle;rounded=0;orthogonalLoop=1;jettySize=auto;html=1;exitX=0;exitY=0.5;exitDx=0;exitDy=0;entryX=0.5;entryY=0;entryDx=0;entryDy=0;" edge="1" parent="1" source="tp6-Ydi6VWiKopPlQBAF-25" target="tp6-Ydi6VWiKopPlQBAF-30">
          <mxGeometry x="-0.3451" y="-10" relative="1" as="geometry">
            <mxPoint as="offset" />
          </mxGeometry>
        </mxCell>
        <mxCell id="tp6-Ydi6VWiKopPlQBAF-36" style="edgeStyle=orthogonalEdgeStyle;rounded=0;orthogonalLoop=1;jettySize=auto;html=1;exitX=1;exitY=0.5;exitDx=0;exitDy=0;entryX=0.5;entryY=0;entryDx=0;entryDy=0;" edge="1" parent="1" source="tp6-Ydi6VWiKopPlQBAF-25" target="tp6-Ydi6VWiKopPlQBAF-11">
          <mxGeometry relative="1" as="geometry" />
        </mxCell>
        <mxCell id="tp6-Ydi6VWiKopPlQBAF-25" value="index &amp;lt; array_size" style="rhombus;whiteSpace=wrap;html=1;" vertex="1" parent="1">
          <mxGeometry x="587" y="480" width="126" height="80" as="geometry" />
        </mxCell>
        <mxCell id="tp6-Ydi6VWiKopPlQBAF-28" value="YES" style="edgeStyle=orthogonalEdgeStyle;rounded=0;orthogonalLoop=1;jettySize=auto;html=1;exitX=0;exitY=0.5;exitDx=0;exitDy=0;entryX=1;entryY=0.5;entryDx=0;entryDy=0;" edge="1" parent="1" source="tp6-Ydi6VWiKopPlQBAF-30">
          <mxGeometry x="-0.1429" y="-10" relative="1" as="geometry">
            <mxPoint x="391" y="610" as="targetPoint" />
            <mxPoint as="offset" />
          </mxGeometry>
        </mxCell>
        <mxCell id="tp6-Ydi6VWiKopPlQBAF-29" value="NO" style="edgeStyle=orthogonalEdgeStyle;rounded=0;orthogonalLoop=1;jettySize=auto;html=1;exitX=0.5;exitY=1;exitDx=0;exitDy=0;entryX=0.5;entryY=0;entryDx=0;entryDy=0;" edge="1" parent="1" source="tp6-Ydi6VWiKopPlQBAF-30" target="tp6-Ydi6VWiKopPlQBAF-32">
          <mxGeometry x="-0.2" y="17" relative="1" as="geometry">
            <mxPoint as="offset" />
          </mxGeometry>
        </mxCell>
        <mxCell id="tp6-Ydi6VWiKopPlQBAF-30" value="array[index] &amp;lt; min_el" style="rhombus;whiteSpace=wrap;html=1;" vertex="1" parent="1">
          <mxGeometry x="461" y="570" width="139" height="80" as="geometry" />
        </mxCell>
        <mxCell id="tp6-Ydi6VWiKopPlQBAF-31" style="edgeStyle=orthogonalEdgeStyle;rounded=0;orthogonalLoop=1;jettySize=auto;html=1;exitX=0.5;exitY=1;exitDx=0;exitDy=0;entryX=0;entryY=0.5;entryDx=0;entryDy=0;" edge="1" parent="1" target="tp6-Ydi6VWiKopPlQBAF-32">
          <mxGeometry relative="1" as="geometry">
            <mxPoint x="331" y="640" as="sourcePoint" />
            <Array as="points">
              <mxPoint x="331" y="730" />
            </Array>
          </mxGeometry>
        </mxCell>
        <mxCell id="tp6-Ydi6VWiKopPlQBAF-35" style="edgeStyle=orthogonalEdgeStyle;rounded=0;orthogonalLoop=1;jettySize=auto;html=1;exitX=1;exitY=0.5;exitDx=0;exitDy=0;entryX=0.5;entryY=1;entryDx=0;entryDy=0;" edge="1" parent="1" source="tp6-Ydi6VWiKopPlQBAF-32" target="tp6-Ydi6VWiKopPlQBAF-25">
          <mxGeometry relative="1" as="geometry" />
        </mxCell>
        <mxCell id="tp6-Ydi6VWiKopPlQBAF-32" value="index = index + 1" style="rounded=0;whiteSpace=wrap;html=1;" vertex="1" parent="1">
          <mxGeometry x="470.5" y="700" width="120" height="60" as="geometry" />
        </mxCell>
        <mxCell id="tp6-Ydi6VWiKopPlQBAF-33" value="min_el = array[index]&lt;br&gt;min_index = index" style="rounded=0;whiteSpace=wrap;html=1;" vertex="1" parent="1">
          <mxGeometry x="271" y="580" width="120" height="60" as="geometry" />
        </mxCell>
      </root>
    </mxGraphModel>
  </diagram>
  <diagram id="ZyI3C5oNYWq0tOZq5RgO" name="Страница 2">
    <mxGraphModel dx="1374" dy="829" grid="1" gridSize="10" guides="1" tooltips="1" connect="1" arrows="1" fold="1" page="1" pageScale="1" pageWidth="827" pageHeight="1169" math="0" shadow="0">
      <root>
        <mxCell id="0" />
        <mxCell id="1" parent="0" />
        <mxCell id="Jgwy3GNsJ_gmTLqLctjJ-1" value="&lt;div style=&quot;text-align: left;&quot;&gt;&lt;font style=&quot;background-color: initial; font-size: 20px;&quot; face=&quot;Times New Roman&quot;&gt;2. Блок-схема &lt;/font&gt;&lt;font color=&quot;#2c2d30&quot; style=&quot;font-size: 20px; background-color: rgb(255, 255, 255);&quot; face=&quot;Times New Roman&quot;&gt;записи массива в обратном порядке&lt;/font&gt;&lt;/div&gt;" style="text;html=1;align=center;verticalAlign=middle;resizable=0;points=[];autosize=1;strokeColor=none;fillColor=none;fontStyle=1" vertex="1" parent="1">
          <mxGeometry x="180" y="20" width="480" height="40" as="geometry" />
        </mxCell>
        <mxCell id="IERokSSKKadkF4ZBqwTn-3" style="edgeStyle=orthogonalEdgeStyle;rounded=0;orthogonalLoop=1;jettySize=auto;html=1;exitX=0.5;exitY=1;exitDx=0;exitDy=0;entryX=0.5;entryY=0;entryDx=0;entryDy=0;" edge="1" parent="1" source="IERokSSKKadkF4ZBqwTn-1" target="IERokSSKKadkF4ZBqwTn-2">
          <mxGeometry relative="1" as="geometry" />
        </mxCell>
        <mxCell id="IERokSSKKadkF4ZBqwTn-1" value="START" style="rounded=1;whiteSpace=wrap;html=1;arcSize=50;" vertex="1" parent="1">
          <mxGeometry x="354" y="100" width="120" height="30" as="geometry" />
        </mxCell>
        <mxCell id="_JYe0N9brrZ564-STBgq-1" style="edgeStyle=orthogonalEdgeStyle;rounded=0;orthogonalLoop=1;jettySize=auto;html=1;exitX=0.5;exitY=1;exitDx=0;exitDy=0;entryX=0.5;entryY=0;entryDx=0;entryDy=0;" edge="1" parent="1" source="IERokSSKKadkF4ZBqwTn-2" target="IERokSSKKadkF4ZBqwTn-4">
          <mxGeometry relative="1" as="geometry" />
        </mxCell>
        <mxCell id="IERokSSKKadkF4ZBqwTn-2" value="array" style="shape=parallelogram;perimeter=parallelogramPerimeter;whiteSpace=wrap;html=1;fixedSize=1;" vertex="1" parent="1">
          <mxGeometry x="354" y="170" width="120" height="30" as="geometry" />
        </mxCell>
        <mxCell id="_JYe0N9brrZ564-STBgq-4" value="" style="edgeStyle=orthogonalEdgeStyle;rounded=0;orthogonalLoop=1;jettySize=auto;html=1;" edge="1" parent="1" source="IERokSSKKadkF4ZBqwTn-4" target="_JYe0N9brrZ564-STBgq-2">
          <mxGeometry relative="1" as="geometry" />
        </mxCell>
        <mxCell id="IERokSSKKadkF4ZBqwTn-4" value="index_reversed = -1&lt;br&gt;index = 0&lt;br&gt;array_reversed = []" style="rounded=0;whiteSpace=wrap;html=1;" vertex="1" parent="1">
          <mxGeometry x="321" y="240" width="186" height="60" as="geometry" />
        </mxCell>
        <mxCell id="_JYe0N9brrZ564-STBgq-6" value="YES" style="edgeStyle=orthogonalEdgeStyle;rounded=0;orthogonalLoop=1;jettySize=auto;html=1;" edge="1" parent="1" source="_JYe0N9brrZ564-STBgq-2" target="_JYe0N9brrZ564-STBgq-5">
          <mxGeometry y="16" relative="1" as="geometry">
            <mxPoint as="offset" />
          </mxGeometry>
        </mxCell>
        <mxCell id="_JYe0N9brrZ564-STBgq-9" value="NO" style="edgeStyle=orthogonalEdgeStyle;rounded=0;orthogonalLoop=1;jettySize=auto;html=1;" edge="1" parent="1" source="_JYe0N9brrZ564-STBgq-2" target="_JYe0N9brrZ564-STBgq-8">
          <mxGeometry x="0.0118" y="10" relative="1" as="geometry">
            <mxPoint as="offset" />
          </mxGeometry>
        </mxCell>
        <mxCell id="_JYe0N9brrZ564-STBgq-2" value="index &amp;lt; len(array)" style="rhombus;whiteSpace=wrap;html=1;" vertex="1" parent="1">
          <mxGeometry x="351" y="340" width="126" height="80" as="geometry" />
        </mxCell>
        <mxCell id="_JYe0N9brrZ564-STBgq-7" style="edgeStyle=orthogonalEdgeStyle;rounded=0;orthogonalLoop=1;jettySize=auto;html=1;exitX=0;exitY=0.5;exitDx=0;exitDy=0;entryX=0;entryY=0.5;entryDx=0;entryDy=0;" edge="1" parent="1" source="_JYe0N9brrZ564-STBgq-5" target="_JYe0N9brrZ564-STBgq-2">
          <mxGeometry relative="1" as="geometry" />
        </mxCell>
        <mxCell id="_JYe0N9brrZ564-STBgq-5" value="array_reversed[index] = array[index_reversed]&lt;br&gt;index = index + 1&lt;br&gt;index_reversed = index_reversed - 1" style="rounded=0;whiteSpace=wrap;html=1;" vertex="1" parent="1">
          <mxGeometry x="276" y="460" width="276" height="60" as="geometry" />
        </mxCell>
        <mxCell id="_JYe0N9brrZ564-STBgq-12" value="" style="edgeStyle=orthogonalEdgeStyle;rounded=0;orthogonalLoop=1;jettySize=auto;html=1;" edge="1" parent="1" source="_JYe0N9brrZ564-STBgq-8" target="_JYe0N9brrZ564-STBgq-10">
          <mxGeometry relative="1" as="geometry" />
        </mxCell>
        <mxCell id="_JYe0N9brrZ564-STBgq-8" value="array_reversed" style="shape=parallelogram;perimeter=parallelogramPerimeter;whiteSpace=wrap;html=1;fixedSize=1;" vertex="1" parent="1">
          <mxGeometry x="552" y="365" width="120" height="30" as="geometry" />
        </mxCell>
        <mxCell id="_JYe0N9brrZ564-STBgq-10" value="END" style="rounded=1;whiteSpace=wrap;html=1;arcSize=50;" vertex="1" parent="1">
          <mxGeometry x="707" y="365" width="120" height="30" as="geometry" />
        </mxCell>
      </root>
    </mxGraphModel>
  </diagram>
  <diagram id="JqP5k0kEniSWB7tfnyge" name="Страница 3">
    <mxGraphModel dx="2201" dy="829" grid="1" gridSize="10" guides="1" tooltips="1" connect="1" arrows="1" fold="1" page="1" pageScale="1" pageWidth="827" pageHeight="1169" math="0" shadow="0">
      <root>
        <mxCell id="0" />
        <mxCell id="1" parent="0" />
        <mxCell id="3YaNNCVhhekyCqIpClEW-1" value="&lt;div style=&quot;&quot;&gt;&lt;font style=&quot;background-color: initial; font-size: 20px;&quot; face=&quot;Times New Roman&quot;&gt;3. Блок-схема&amp;nbsp;&lt;span style=&quot;color: rgb(44, 45, 48); background-color: rgb(255, 255, 255);&quot;&gt;нахождения&amp;nbsp;&lt;/span&gt;&lt;/font&gt;&lt;span style=&quot;color: rgb(44, 45, 48); font-family: &amp;quot;Times New Roman&amp;quot;; background-color: initial; font-size: 20px;&quot;&gt;суммы элементов массива,&lt;/span&gt;&lt;/div&gt;&lt;div style=&quot;&quot;&gt;&lt;span style=&quot;color: rgb(44, 45, 48); font-family: &amp;quot;Times New Roman&amp;quot;; background-color: initial; font-size: 20px;&quot;&gt;лежащих между максимальным и&lt;/span&gt;&lt;/div&gt;&lt;div style=&quot;&quot;&gt;&lt;span style=&quot;color: rgb(44, 45, 48); font-family: &amp;quot;Times New Roman&amp;quot;; background-color: initial; font-size: 20px;&quot;&gt;минимальным по значению элементами&lt;/span&gt;&lt;/div&gt;" style="text;html=1;align=center;verticalAlign=middle;resizable=0;points=[];autosize=1;strokeColor=none;fillColor=none;fontStyle=1" vertex="1" parent="1">
          <mxGeometry x="159" width="510" height="90" as="geometry" />
        </mxCell>
        <mxCell id="3YaNNCVhhekyCqIpClEW-2" value="&#39;&#39;&#39;&lt;br&gt;array = [1, 8, 3, 2, 6]&lt;br&gt;array.remove(max(array))&lt;br&gt;array.remove(min(array))&lt;br&gt;print(sum(array)&lt;br&gt;&#39;&#39;&#39;" style="text;html=1;strokeColor=none;fillColor=none;align=center;verticalAlign=middle;whiteSpace=wrap;rounded=0;" vertex="1" parent="1">
          <mxGeometry x="-240" y="1090" width="120" height="30" as="geometry" />
        </mxCell>
        <mxCell id="AbTMsUXikdyzUa5O6iBg-1" style="edgeStyle=orthogonalEdgeStyle;rounded=0;orthogonalLoop=1;jettySize=auto;html=1;exitX=0.5;exitY=1;exitDx=0;exitDy=0;entryX=0.5;entryY=0;entryDx=0;entryDy=0;" edge="1" parent="1" source="AbTMsUXikdyzUa5O6iBg-2" target="AbTMsUXikdyzUa5O6iBg-5">
          <mxGeometry relative="1" as="geometry" />
        </mxCell>
        <mxCell id="AbTMsUXikdyzUa5O6iBg-2" value="START" style="rounded=1;whiteSpace=wrap;html=1;arcSize=50;" vertex="1" parent="1">
          <mxGeometry x="354" y="110" width="120" height="30" as="geometry" />
        </mxCell>
        <mxCell id="AbTMsUXikdyzUa5O6iBg-4" style="edgeStyle=orthogonalEdgeStyle;rounded=0;orthogonalLoop=1;jettySize=auto;html=1;exitX=0.5;exitY=1;exitDx=0;exitDy=0;entryX=0.5;entryY=0;entryDx=0;entryDy=0;" edge="1" parent="1" source="AbTMsUXikdyzUa5O6iBg-5" target="AbTMsUXikdyzUa5O6iBg-8">
          <mxGeometry relative="1" as="geometry" />
        </mxCell>
        <mxCell id="AbTMsUXikdyzUa5O6iBg-5" value="array" style="shape=parallelogram;perimeter=parallelogramPerimeter;whiteSpace=wrap;html=1;fixedSize=1;" vertex="1" parent="1">
          <mxGeometry x="354" y="180" width="120" height="30" as="geometry" />
        </mxCell>
        <mxCell id="AbTMsUXikdyzUa5O6iBg-6" style="edgeStyle=orthogonalEdgeStyle;rounded=0;orthogonalLoop=1;jettySize=auto;html=1;exitX=0.5;exitY=1;exitDx=0;exitDy=0;" edge="1" parent="1" source="AbTMsUXikdyzUa5O6iBg-5" target="AbTMsUXikdyzUa5O6iBg-5">
          <mxGeometry relative="1" as="geometry" />
        </mxCell>
        <mxCell id="AbTMsUXikdyzUa5O6iBg-7" style="edgeStyle=orthogonalEdgeStyle;rounded=0;orthogonalLoop=1;jettySize=auto;html=1;exitX=0.5;exitY=1;exitDx=0;exitDy=0;entryX=0.5;entryY=0;entryDx=0;entryDy=0;" edge="1" parent="1" source="AbTMsUXikdyzUa5O6iBg-8" target="AbTMsUXikdyzUa5O6iBg-11">
          <mxGeometry relative="1" as="geometry" />
        </mxCell>
        <mxCell id="AbTMsUXikdyzUa5O6iBg-8" value="array_size = len(array)&lt;br&gt;index = 0&lt;br&gt;max_el = array[0]&lt;br&gt;min_el = array[0]&lt;br&gt;summ = 0" style="rounded=0;whiteSpace=wrap;html=1;" vertex="1" parent="1">
          <mxGeometry x="329" y="250" width="170" height="90" as="geometry" />
        </mxCell>
        <mxCell id="AbTMsUXikdyzUa5O6iBg-9" value="YES" style="edgeStyle=orthogonalEdgeStyle;rounded=0;orthogonalLoop=1;jettySize=auto;html=1;exitX=0;exitY=0.5;exitDx=0;exitDy=0;entryX=1;entryY=0.5;entryDx=0;entryDy=0;" edge="1" parent="1" source="AbTMsUXikdyzUa5O6iBg-11" target="AbTMsUXikdyzUa5O6iBg-16">
          <mxGeometry x="-0.0462" y="-10" relative="1" as="geometry">
            <mxPoint as="offset" />
          </mxGeometry>
        </mxCell>
        <mxCell id="AbTMsUXikdyzUa5O6iBg-10" value="NO" style="edgeStyle=orthogonalEdgeStyle;rounded=0;orthogonalLoop=1;jettySize=auto;html=1;exitX=1;exitY=0.5;exitDx=0;exitDy=0;entryX=0;entryY=0.5;entryDx=0;entryDy=0;" edge="1" parent="1" source="AbTMsUXikdyzUa5O6iBg-11" target="AbTMsUXikdyzUa5O6iBg-22">
          <mxGeometry x="-0.0619" y="10" relative="1" as="geometry">
            <mxPoint as="offset" />
          </mxGeometry>
        </mxCell>
        <mxCell id="AbTMsUXikdyzUa5O6iBg-11" value="index &amp;lt; array_size" style="rhombus;whiteSpace=wrap;html=1;" vertex="1" parent="1">
          <mxGeometry x="351" y="370" width="126" height="80" as="geometry" />
        </mxCell>
        <mxCell id="AbTMsUXikdyzUa5O6iBg-14" value="YES" style="edgeStyle=orthogonalEdgeStyle;rounded=0;orthogonalLoop=1;jettySize=auto;html=1;exitX=0;exitY=0.5;exitDx=0;exitDy=0;entryX=1;entryY=0.5;entryDx=0;entryDy=0;" edge="1" parent="1" source="AbTMsUXikdyzUa5O6iBg-16" target="AbTMsUXikdyzUa5O6iBg-18">
          <mxGeometry x="-0.1429" y="-10" relative="1" as="geometry">
            <mxPoint as="offset" />
          </mxGeometry>
        </mxCell>
        <mxCell id="AbTMsUXikdyzUa5O6iBg-15" value="NO" style="edgeStyle=orthogonalEdgeStyle;rounded=0;orthogonalLoop=1;jettySize=auto;html=1;exitX=0.5;exitY=1;exitDx=0;exitDy=0;entryX=0.5;entryY=0;entryDx=0;entryDy=0;" edge="1" parent="1" source="AbTMsUXikdyzUa5O6iBg-16" target="AbTMsUXikdyzUa5O6iBg-20">
          <mxGeometry x="-0.2" y="17" relative="1" as="geometry">
            <mxPoint as="offset" />
          </mxGeometry>
        </mxCell>
        <mxCell id="AbTMsUXikdyzUa5O6iBg-16" value="array[index] &amp;gt; max_el" style="rhombus;whiteSpace=wrap;html=1;" vertex="1" parent="1">
          <mxGeometry x="180" y="370" width="140" height="80" as="geometry" />
        </mxCell>
        <mxCell id="AbTMsUXikdyzUa5O6iBg-17" style="edgeStyle=orthogonalEdgeStyle;rounded=0;orthogonalLoop=1;jettySize=auto;html=1;exitX=0.5;exitY=1;exitDx=0;exitDy=0;entryX=0;entryY=0.5;entryDx=0;entryDy=0;" edge="1" parent="1" source="AbTMsUXikdyzUa5O6iBg-18" target="AbTMsUXikdyzUa5O6iBg-20">
          <mxGeometry relative="1" as="geometry" />
        </mxCell>
        <mxCell id="AbTMsUXikdyzUa5O6iBg-18" value="max_el = array[index]" style="rounded=0;whiteSpace=wrap;html=1;" vertex="1" parent="1">
          <mxGeometry x="10" y="395" width="120" height="30" as="geometry" />
        </mxCell>
        <mxCell id="AbTMsUXikdyzUa5O6iBg-19" style="edgeStyle=orthogonalEdgeStyle;rounded=0;orthogonalLoop=1;jettySize=auto;html=1;exitX=1;exitY=0.5;exitDx=0;exitDy=0;entryX=0.5;entryY=1;entryDx=0;entryDy=0;" edge="1" parent="1" source="AbTMsUXikdyzUa5O6iBg-20" target="AbTMsUXikdyzUa5O6iBg-11">
          <mxGeometry relative="1" as="geometry" />
        </mxCell>
        <mxCell id="AbTMsUXikdyzUa5O6iBg-20" value="index = index + 1" style="rounded=0;whiteSpace=wrap;html=1;" vertex="1" parent="1">
          <mxGeometry x="190" y="500" width="120" height="30" as="geometry" />
        </mxCell>
        <mxCell id="AbTMsUXikdyzUa5O6iBg-21" style="edgeStyle=orthogonalEdgeStyle;rounded=0;orthogonalLoop=1;jettySize=auto;html=1;exitX=0.5;exitY=1;exitDx=0;exitDy=0;entryX=0.5;entryY=0;entryDx=0;entryDy=0;" edge="1" parent="1" source="AbTMsUXikdyzUa5O6iBg-22" target="AbTMsUXikdyzUa5O6iBg-25">
          <mxGeometry relative="1" as="geometry" />
        </mxCell>
        <mxCell id="AbTMsUXikdyzUa5O6iBg-22" value="index = 0" style="rounded=0;whiteSpace=wrap;html=1;" vertex="1" parent="1">
          <mxGeometry x="590" y="395" width="120" height="30" as="geometry" />
        </mxCell>
        <mxCell id="AbTMsUXikdyzUa5O6iBg-23" value="YES" style="edgeStyle=orthogonalEdgeStyle;rounded=0;orthogonalLoop=1;jettySize=auto;html=1;exitX=0;exitY=0.5;exitDx=0;exitDy=0;entryX=0.5;entryY=0;entryDx=0;entryDy=0;" edge="1" parent="1" source="AbTMsUXikdyzUa5O6iBg-25" target="AbTMsUXikdyzUa5O6iBg-28">
          <mxGeometry x="-0.3451" y="-10" relative="1" as="geometry">
            <mxPoint as="offset" />
          </mxGeometry>
        </mxCell>
        <mxCell id="AbTMsUXikdyzUa5O6iBg-24" value="NO" style="edgeStyle=orthogonalEdgeStyle;rounded=0;orthogonalLoop=1;jettySize=auto;html=1;exitX=1;exitY=0.5;exitDx=0;exitDy=0;entryX=0.5;entryY=0;entryDx=0;entryDy=0;" edge="1" parent="1" source="AbTMsUXikdyzUa5O6iBg-25" target="M-pg7N9HtxaJzu_dEn85-9">
          <mxGeometry x="0.0152" y="10" relative="1" as="geometry">
            <mxPoint x="740" y="585" as="targetPoint" />
            <mxPoint as="offset" />
          </mxGeometry>
        </mxCell>
        <mxCell id="AbTMsUXikdyzUa5O6iBg-25" value="index &amp;lt; array_size" style="rhombus;whiteSpace=wrap;html=1;" vertex="1" parent="1">
          <mxGeometry x="587" y="480" width="126" height="80" as="geometry" />
        </mxCell>
        <mxCell id="AbTMsUXikdyzUa5O6iBg-26" value="YES" style="edgeStyle=orthogonalEdgeStyle;rounded=0;orthogonalLoop=1;jettySize=auto;html=1;exitX=0;exitY=0.5;exitDx=0;exitDy=0;entryX=1;entryY=0.5;entryDx=0;entryDy=0;" edge="1" parent="1" source="AbTMsUXikdyzUa5O6iBg-28">
          <mxGeometry x="-0.1429" y="-10" relative="1" as="geometry">
            <mxPoint x="391" y="610" as="targetPoint" />
            <mxPoint as="offset" />
          </mxGeometry>
        </mxCell>
        <mxCell id="AbTMsUXikdyzUa5O6iBg-27" value="NO" style="edgeStyle=orthogonalEdgeStyle;rounded=0;orthogonalLoop=1;jettySize=auto;html=1;exitX=0.5;exitY=1;exitDx=0;exitDy=0;entryX=0.5;entryY=0;entryDx=0;entryDy=0;" edge="1" parent="1" source="AbTMsUXikdyzUa5O6iBg-28" target="AbTMsUXikdyzUa5O6iBg-31">
          <mxGeometry x="-0.2" y="17" relative="1" as="geometry">
            <mxPoint as="offset" />
          </mxGeometry>
        </mxCell>
        <mxCell id="AbTMsUXikdyzUa5O6iBg-28" value="array[index] &amp;lt; min_el" style="rhombus;whiteSpace=wrap;html=1;" vertex="1" parent="1">
          <mxGeometry x="461" y="570" width="139" height="80" as="geometry" />
        </mxCell>
        <mxCell id="AbTMsUXikdyzUa5O6iBg-30" style="edgeStyle=orthogonalEdgeStyle;rounded=0;orthogonalLoop=1;jettySize=auto;html=1;exitX=1;exitY=0.5;exitDx=0;exitDy=0;entryX=0.5;entryY=1;entryDx=0;entryDy=0;" edge="1" parent="1" source="AbTMsUXikdyzUa5O6iBg-31" target="AbTMsUXikdyzUa5O6iBg-25">
          <mxGeometry relative="1" as="geometry" />
        </mxCell>
        <mxCell id="AbTMsUXikdyzUa5O6iBg-31" value="index = index + 1" style="rounded=0;whiteSpace=wrap;html=1;" vertex="1" parent="1">
          <mxGeometry x="470.5" y="710" width="120" height="30" as="geometry" />
        </mxCell>
        <mxCell id="M-pg7N9HtxaJzu_dEn85-8" style="edgeStyle=orthogonalEdgeStyle;rounded=0;orthogonalLoop=1;jettySize=auto;html=1;exitX=0.5;exitY=1;exitDx=0;exitDy=0;entryX=0;entryY=0.5;entryDx=0;entryDy=0;" edge="1" parent="1" source="AbTMsUXikdyzUa5O6iBg-32" target="AbTMsUXikdyzUa5O6iBg-31">
          <mxGeometry relative="1" as="geometry" />
        </mxCell>
        <mxCell id="AbTMsUXikdyzUa5O6iBg-32" value="min_el = array[index]" style="rounded=0;whiteSpace=wrap;html=1;" vertex="1" parent="1">
          <mxGeometry x="271" y="595" width="120" height="30" as="geometry" />
        </mxCell>
        <mxCell id="M-pg7N9HtxaJzu_dEn85-3" value="END" style="rounded=1;whiteSpace=wrap;html=1;arcSize=50;" vertex="1" parent="1">
          <mxGeometry x="850" y="870" width="120" height="30" as="geometry" />
        </mxCell>
        <mxCell id="M-pg7N9HtxaJzu_dEn85-4" style="edgeStyle=orthogonalEdgeStyle;rounded=0;orthogonalLoop=1;jettySize=auto;html=1;exitX=0.5;exitY=1;exitDx=0;exitDy=0;entryX=0.5;entryY=0;entryDx=0;entryDy=0;" edge="1" parent="1" source="M-pg7N9HtxaJzu_dEn85-5" target="M-pg7N9HtxaJzu_dEn85-3">
          <mxGeometry relative="1" as="geometry" />
        </mxCell>
        <mxCell id="M-pg7N9HtxaJzu_dEn85-5" value="summ" style="shape=parallelogram;perimeter=parallelogramPerimeter;whiteSpace=wrap;html=1;fixedSize=1;" vertex="1" parent="1">
          <mxGeometry x="850" y="785" width="120" height="30" as="geometry" />
        </mxCell>
        <mxCell id="M-pg7N9HtxaJzu_dEn85-12" style="edgeStyle=orthogonalEdgeStyle;rounded=0;orthogonalLoop=1;jettySize=auto;html=1;exitX=0.5;exitY=1;exitDx=0;exitDy=0;entryX=0.5;entryY=0;entryDx=0;entryDy=0;" edge="1" parent="1" source="M-pg7N9HtxaJzu_dEn85-9" target="M-pg7N9HtxaJzu_dEn85-13">
          <mxGeometry relative="1" as="geometry">
            <mxPoint x="740" y="740" as="targetPoint" />
          </mxGeometry>
        </mxCell>
        <mxCell id="M-pg7N9HtxaJzu_dEn85-9" value="Удалить максимальный и минимальный элементы массива&lt;br&gt;index = 0" style="rounded=0;whiteSpace=wrap;html=1;" vertex="1" parent="1">
          <mxGeometry x="680" y="625" width="120" height="80" as="geometry" />
        </mxCell>
        <mxCell id="M-pg7N9HtxaJzu_dEn85-10" value="# array.remove(max_el)&lt;br&gt;# array.remove(min_el)" style="text;html=1;strokeColor=none;fillColor=none;align=center;verticalAlign=middle;whiteSpace=wrap;rounded=0;" vertex="1" parent="1">
          <mxGeometry x="810" y="650" width="150" height="30" as="geometry" />
        </mxCell>
        <mxCell id="M-pg7N9HtxaJzu_dEn85-15" value="YES" style="edgeStyle=orthogonalEdgeStyle;rounded=0;orthogonalLoop=1;jettySize=auto;html=1;exitX=0;exitY=0.5;exitDx=0;exitDy=0;entryX=1;entryY=0.5;entryDx=0;entryDy=0;" edge="1" parent="1" source="M-pg7N9HtxaJzu_dEn85-13" target="M-pg7N9HtxaJzu_dEn85-14">
          <mxGeometry x="-0.0526" y="-10" relative="1" as="geometry">
            <mxPoint as="offset" />
          </mxGeometry>
        </mxCell>
        <mxCell id="M-pg7N9HtxaJzu_dEn85-18" value="NO" style="edgeStyle=orthogonalEdgeStyle;rounded=0;orthogonalLoop=1;jettySize=auto;html=1;exitX=1;exitY=0.5;exitDx=0;exitDy=0;entryX=0;entryY=0.5;entryDx=0;entryDy=0;" edge="1" parent="1" source="M-pg7N9HtxaJzu_dEn85-13" target="M-pg7N9HtxaJzu_dEn85-5">
          <mxGeometry x="-0.0526" y="10" relative="1" as="geometry">
            <mxPoint as="offset" />
          </mxGeometry>
        </mxCell>
        <mxCell id="M-pg7N9HtxaJzu_dEn85-13" value="index &amp;lt; array_size" style="rhombus;whiteSpace=wrap;html=1;" vertex="1" parent="1">
          <mxGeometry x="677" y="760" width="126" height="80" as="geometry" />
        </mxCell>
        <mxCell id="M-pg7N9HtxaJzu_dEn85-17" style="edgeStyle=orthogonalEdgeStyle;rounded=0;orthogonalLoop=1;jettySize=auto;html=1;exitX=0.5;exitY=1;exitDx=0;exitDy=0;entryX=0.5;entryY=1;entryDx=0;entryDy=0;" edge="1" parent="1" source="M-pg7N9HtxaJzu_dEn85-14" target="M-pg7N9HtxaJzu_dEn85-13">
          <mxGeometry relative="1" as="geometry">
            <Array as="points">
              <mxPoint x="535" y="860" />
              <mxPoint x="740" y="860" />
            </Array>
          </mxGeometry>
        </mxCell>
        <mxCell id="M-pg7N9HtxaJzu_dEn85-14" value="summ = summ + array[index]&lt;br&gt;index = index + 1" style="rounded=0;whiteSpace=wrap;html=1;" vertex="1" parent="1">
          <mxGeometry x="450" y="770" width="170" height="60" as="geometry" />
        </mxCell>
      </root>
    </mxGraphModel>
  </diagram>
  <diagram id="SfHQTnqGMidBgkDXGSPC" name="Страница 4">
    <mxGraphModel dx="1374" dy="829" grid="1" gridSize="10" guides="1" tooltips="1" connect="1" arrows="1" fold="1" page="1" pageScale="1" pageWidth="827" pageHeight="1169" math="0" shadow="0">
      <root>
        <mxCell id="0" />
        <mxCell id="1" parent="0" />
        <mxCell id="mQbcyJstAwNmhlI5Reao-1" value="&lt;div style=&quot;&quot;&gt;&lt;font style=&quot;background-color: initial; font-size: 20px;&quot; face=&quot;Times New Roman&quot;&gt;4. Блок-схема&amp;nbsp;&lt;span style=&quot;color: rgb(44, 45, 48); background-color: rgb(255, 255, 255);&quot;&gt;нахождения среднего арифметического&lt;/span&gt;&lt;/font&gt;&lt;/div&gt;&lt;div style=&quot;&quot;&gt;&lt;span style=&quot;background-color: initial; font-size: 20px;&quot;&gt;&lt;font face=&quot;Times New Roman&quot; color=&quot;#2c2d30&quot;&gt;среди всех элементов массива&lt;/font&gt;&lt;/span&gt;&lt;/div&gt;" style="text;html=1;align=center;verticalAlign=middle;resizable=0;points=[];autosize=1;strokeColor=none;fillColor=none;fontStyle=1" vertex="1" parent="1">
          <mxGeometry x="165" y="10" width="510" height="60" as="geometry" />
        </mxCell>
        <mxCell id="mQbcyJstAwNmhlI5Reao-2" style="edgeStyle=orthogonalEdgeStyle;rounded=0;orthogonalLoop=1;jettySize=auto;html=1;exitX=0.5;exitY=1;exitDx=0;exitDy=0;entryX=0.5;entryY=0;entryDx=0;entryDy=0;fontFamily=Times New Roman;fontSize=12;" edge="1" parent="1" target="mQbcyJstAwNmhlI5Reao-5">
          <mxGeometry relative="1" as="geometry">
            <mxPoint x="414" y="140" as="sourcePoint" />
          </mxGeometry>
        </mxCell>
        <mxCell id="_z2yCz7x8bqW8zUVlvVR-1" style="edgeStyle=orthogonalEdgeStyle;rounded=0;orthogonalLoop=1;jettySize=auto;html=1;exitX=0.5;exitY=1;exitDx=0;exitDy=0;entryX=0.5;entryY=0;entryDx=0;entryDy=0;" edge="1" parent="1" source="mQbcyJstAwNmhlI5Reao-5" target="xDCqJCJKDzDJoDj_kGIs-2">
          <mxGeometry relative="1" as="geometry" />
        </mxCell>
        <mxCell id="mQbcyJstAwNmhlI5Reao-5" value="array" style="shape=parallelogram;perimeter=parallelogramPerimeter;whiteSpace=wrap;html=1;fixedSize=1;fontFamily=Times New Roman;fontSize=12;" vertex="1" parent="1">
          <mxGeometry x="354" y="180" width="120" height="30" as="geometry" />
        </mxCell>
        <mxCell id="mQbcyJstAwNmhlI5Reao-8" style="edgeStyle=orthogonalEdgeStyle;rounded=0;orthogonalLoop=1;jettySize=auto;html=1;exitX=0.5;exitY=1;exitDx=0;exitDy=0;entryX=0.5;entryY=0;entryDx=0;entryDy=0;fontFamily=Times New Roman;fontSize=12;" edge="1" parent="1">
          <mxGeometry relative="1" as="geometry">
            <mxPoint x="665" y="480" as="sourcePoint" />
            <mxPoint x="665" y="520" as="targetPoint" />
          </mxGeometry>
        </mxCell>
        <mxCell id="o3yjLnsf5tDQ8r7fOcEV-1" value="END" style="rounded=1;whiteSpace=wrap;html=1;arcSize=50;" vertex="1" parent="1">
          <mxGeometry x="605" y="520" width="120" height="30" as="geometry" />
        </mxCell>
        <mxCell id="xDCqJCJKDzDJoDj_kGIs-1" value="START" style="rounded=1;whiteSpace=wrap;html=1;arcSize=50;" vertex="1" parent="1">
          <mxGeometry x="354" y="110" width="120" height="30" as="geometry" />
        </mxCell>
        <mxCell id="JyxbGV8CMTl5F8uY8Qov-1" style="edgeStyle=orthogonalEdgeStyle;rounded=0;orthogonalLoop=1;jettySize=auto;html=1;exitX=0.5;exitY=1;exitDx=0;exitDy=0;entryX=0.5;entryY=0;entryDx=0;entryDy=0;" edge="1" parent="1" source="xDCqJCJKDzDJoDj_kGIs-2" target="_z2yCz7x8bqW8zUVlvVR-2">
          <mxGeometry relative="1" as="geometry" />
        </mxCell>
        <mxCell id="xDCqJCJKDzDJoDj_kGIs-2" value="index = 0&lt;br&gt;array_size = len(array)&lt;br&gt;summ = 0&lt;br&gt;arihmetic_mean = 0" style="rounded=0;whiteSpace=wrap;html=1;" vertex="1" parent="1">
          <mxGeometry x="329" y="250" width="170" height="60" as="geometry" />
        </mxCell>
        <mxCell id="NMT-o45YxaO8hEFpQu7j-2" value="YES" style="edgeStyle=orthogonalEdgeStyle;rounded=0;orthogonalLoop=1;jettySize=auto;html=1;exitX=0;exitY=0.5;exitDx=0;exitDy=0;entryX=1;entryY=0.5;entryDx=0;entryDy=0;" edge="1" parent="1" source="_z2yCz7x8bqW8zUVlvVR-2" target="NMT-o45YxaO8hEFpQu7j-1">
          <mxGeometry x="-0.1268" y="-10" relative="1" as="geometry">
            <mxPoint as="offset" />
          </mxGeometry>
        </mxCell>
        <mxCell id="NMT-o45YxaO8hEFpQu7j-5" value="NO" style="edgeStyle=orthogonalEdgeStyle;rounded=0;orthogonalLoop=1;jettySize=auto;html=1;exitX=1;exitY=0.5;exitDx=0;exitDy=0;entryX=0;entryY=0.5;entryDx=0;entryDy=0;" edge="1" parent="1" source="_z2yCz7x8bqW8zUVlvVR-2" target="NMT-o45YxaO8hEFpQu7j-7">
          <mxGeometry x="-0.0959" y="10" relative="1" as="geometry">
            <mxPoint x="550" y="390" as="targetPoint" />
            <mxPoint as="offset" />
          </mxGeometry>
        </mxCell>
        <mxCell id="_z2yCz7x8bqW8zUVlvVR-2" value="index &amp;lt; array_size" style="rhombus;whiteSpace=wrap;html=1;" vertex="1" parent="1">
          <mxGeometry x="351" y="350" width="126" height="80" as="geometry" />
        </mxCell>
        <mxCell id="NMT-o45YxaO8hEFpQu7j-3" style="edgeStyle=orthogonalEdgeStyle;rounded=0;orthogonalLoop=1;jettySize=auto;html=1;exitX=0.5;exitY=1;exitDx=0;exitDy=0;entryX=0.5;entryY=1;entryDx=0;entryDy=0;" edge="1" parent="1" source="NMT-o45YxaO8hEFpQu7j-1" target="_z2yCz7x8bqW8zUVlvVR-2">
          <mxGeometry relative="1" as="geometry">
            <Array as="points">
              <mxPoint x="195" y="450" />
              <mxPoint x="414" y="450" />
            </Array>
          </mxGeometry>
        </mxCell>
        <mxCell id="NMT-o45YxaO8hEFpQu7j-1" value="summ = summ + array[index]&lt;br&gt;index = index + 1" style="rounded=0;whiteSpace=wrap;html=1;" vertex="1" parent="1">
          <mxGeometry x="110" y="360" width="170" height="60" as="geometry" />
        </mxCell>
        <mxCell id="NMT-o45YxaO8hEFpQu7j-9" style="edgeStyle=orthogonalEdgeStyle;rounded=0;orthogonalLoop=1;jettySize=auto;html=1;exitX=0.5;exitY=1;exitDx=0;exitDy=0;entryX=0.5;entryY=0;entryDx=0;entryDy=0;" edge="1" parent="1" source="NMT-o45YxaO8hEFpQu7j-7" target="NMT-o45YxaO8hEFpQu7j-8">
          <mxGeometry relative="1" as="geometry" />
        </mxCell>
        <mxCell id="NMT-o45YxaO8hEFpQu7j-7" value="arihmetic_mean = summ / array_size" style="rounded=0;whiteSpace=wrap;html=1;" vertex="1" parent="1">
          <mxGeometry x="560" y="375" width="210" height="30" as="geometry" />
        </mxCell>
        <mxCell id="NMT-o45YxaO8hEFpQu7j-8" value="arihmetic_mean" style="shape=parallelogram;perimeter=parallelogramPerimeter;whiteSpace=wrap;html=1;fixedSize=1;" vertex="1" parent="1">
          <mxGeometry x="605" y="450" width="120" height="30" as="geometry" />
        </mxCell>
      </root>
    </mxGraphModel>
  </diagram>
</mxfile>
